<svg width="15" height="15" viewBox="0 0 15 15" fill="none" xmlns="http://www.w3.org/2000/svg">
<path d="M13.7165 6.28328L13.4332 5.63328L12.7665 5.33328L13.4332 5.03328L13.7165 4.38328L14.0332 5.03328L14.6665 5.33328L14.0332 5.63328L13.7165 6.28328ZM11.6665 3.33328L11.2165 2.36661L10.2332 1.91661L11.2165 1.46661L11.6665 0.483276L12.1165 1.46661L13.0998 1.91661L12.1165 2.36661L11.6665 3.33328ZM4.99984 14.0999C4.68873 14.0999 4.41928 13.9972 4.1915 13.7916C3.96373 13.5861 3.82762 13.3277 3.78317 13.0166H6.2165C6.17206 13.3277 6.03595 13.5861 5.80817 13.7916C5.58039 13.9972 5.31095 14.0999 4.99984 14.0999ZM2.64984 11.6666V11.1499H7.34984V11.6666H2.64984ZM2.64984 9.81661C2.03873 9.39439 1.55539 8.87772 1.19984 8.26661C0.844282 7.6555 0.666504 6.96661 0.666504 6.19994C0.666504 5.01105 1.0915 3.99161 1.9415 3.14161C2.7915 2.29161 3.81095 1.86661 4.99984 1.86661C6.18873 1.86661 7.20817 2.29161 8.05817 3.14161C8.90817 3.99161 9.33317 5.01105 9.33317 6.19994C9.33317 6.96661 9.15539 7.6555 8.79984 8.26661C8.44428 8.87772 7.96095 9.39439 7.34984 9.81661H2.64984ZM2.83317 9.29994H7.18317C7.69428 8.94439 8.09428 8.49716 8.38317 7.95828C8.67206 7.41939 8.8165 6.83328 8.8165 6.19994C8.8165 5.14439 8.44428 4.24439 7.69984 3.49994C6.95539 2.7555 6.05539 2.38328 4.99984 2.38328C3.94428 2.38328 3.04428 2.7555 2.29984 3.49994C1.55539 4.24439 1.18317 5.14439 1.18317 6.19994C1.18317 6.83328 1.32762 7.41939 1.6165 7.95828C1.90539 8.49716 2.31095 8.94439 2.83317 9.29994Z" fill="#D453B6"/>
</svg>
