<svg width="22" height="22" viewBox="0 0 22 22" fill="none" xmlns="http://www.w3.org/2000/svg">
<path d="M0.820801 0.791656H9.5708V9.54166H0.820801V0.791656ZM2.10413 2.07499V7.93749V2.07499ZM12.4583 0.791656H21.2083V9.54166H12.4583V0.791656ZM14.0625 2.07499V7.93749V2.07499ZM0.820801 12.4292H9.5708V21.1792H0.820801V12.4292ZM2.10413 14.0042V19.8958V14.0042ZM16.2208 12.4292H17.475V16.1625H21.2083V17.4458H17.475V21.1792H16.2208V17.4458H12.4583V16.1625H16.2208V12.4292ZM13.7416 2.07499V8.25832H19.925V2.07499H13.7416ZM2.10413 2.07499V8.25832H8.28747V2.07499H2.10413ZM2.10413 13.7125V19.8958H8.28747V13.7125H2.10413Z" fill="#5E5EDD"/>
</svg>
