<svg width="18" height="23" viewBox="0 0 18 23" fill="none" xmlns="http://www.w3.org/2000/svg">
<path d="M2.37921 22.675C1.85421 22.675 1.3924 22.4805 0.993791 22.0917C0.595179 21.7028 0.395874 21.2361 0.395874 20.6917V7.45C0.395874 6.92499 0.595179 6.46319 0.993791 6.06458C1.3924 5.66597 1.85421 5.46666 2.37921 5.46666H4.88754V4.73749C4.88754 3.62916 5.28615 2.68124 6.08337 1.89374C6.8806 1.10624 7.85282 0.712494 9.00004 0.712494C10.1473 0.712494 11.1243 1.10624 11.9313 1.89374C12.7382 2.68124 13.1417 3.62916 13.1417 4.73749V5.46666H15.6209C16.1459 5.46666 16.6077 5.66597 17.0063 6.06458C17.4049 6.46319 17.6042 6.92499 17.6042 7.45V20.6917C17.6042 21.2361 17.4049 21.7028 17.0063 22.0917C16.6077 22.4805 16.1459 22.675 15.6209 22.675H2.37921ZM2.37921 21.3917H15.6209C15.7959 21.3917 15.9563 21.3187 16.1021 21.1729C16.248 21.0271 16.3209 20.8667 16.3209 20.6917V7.45C16.3209 7.27499 16.248 7.11458 16.1021 6.96874C15.9563 6.82291 15.7959 6.74999 15.6209 6.74999H13.1417V9.60833C13.1417 9.78333 13.0785 9.93402 12.9521 10.0604C12.8257 10.1868 12.675 10.25 12.5 10.25C12.325 10.25 12.1792 10.1868 12.0625 10.0604C11.9459 9.93402 11.8875 9.78333 11.8875 9.60833V6.74999H6.14171V9.60833C6.14171 9.78333 6.07851 9.93402 5.95212 10.0604C5.82574 10.1868 5.67504 10.25 5.50004 10.25C5.32504 10.25 5.17921 10.1868 5.06254 10.0604C4.94587 9.93402 4.88754 9.78333 4.88754 9.60833V6.74999H2.37921C2.20421 6.74999 2.04379 6.82291 1.89796 6.96874C1.75212 7.11458 1.67921 7.27499 1.67921 7.45V20.6917C1.67921 20.8667 1.75212 21.0271 1.89796 21.1729C2.04379 21.3187 2.20421 21.3917 2.37921 21.3917ZM6.14171 5.46666H11.8875V4.73749C11.8875 3.97916 11.6056 3.33263 11.0417 2.79791C10.4778 2.26319 9.79726 1.99583 9.00004 1.99583C8.20282 1.99583 7.52712 2.26319 6.97296 2.79791C6.41879 3.33263 6.14171 3.97916 6.14171 4.73749V5.46666ZM1.67921 21.3917V6.74999V21.3917Z" fill="#5E5EDD"/>
</svg>
