<svg width="49" height="48" viewBox="0 0 49 48" fill="none" xmlns="http://www.w3.org/2000/svg">
<path fill-rule="evenodd" clip-rule="evenodd" d="M18.1118 0C15.4637 0.00195719 13.3206 2.15095 13.3225 4.79902C13.3206 7.44709 15.4657 9.59609 18.1137 9.59804H22.9049V4.80098C22.9069 2.15291 20.7618 0.00391437 18.1118 0C18.1137 0 18.1137 0 18.1118 0M18.1118 12.8H5.33917C2.6911 12.802 0.546022 14.9509 0.547979 17.599C0.544065 20.2471 2.68914 22.3961 5.33721 22.4H18.1118C20.7598 22.398 22.9049 20.2491 22.903 17.601C22.9049 14.9509 20.7598 12.802 18.1118 12.8Z" fill="#36C5F0"/>
<path fill-rule="evenodd" clip-rule="evenodd" d="M48.452 17.599C48.454 14.9509 46.3089 12.802 43.6608 12.8C41.0128 12.802 38.8677 14.9509 38.8697 17.599V22.4H43.6608C46.3089 22.398 48.454 20.2491 48.452 17.599ZM35.6775 17.599V4.79902C35.6794 2.15291 33.5363 0.00391437 30.8882 0C28.2402 0.00195719 26.0951 2.15095 26.0971 4.79902V17.599C26.0931 20.2471 28.2382 22.3961 30.8863 22.4C33.5344 22.398 35.6794 20.2491 35.6775 17.599Z" fill="#2EB67D"/>
<path fill-rule="evenodd" clip-rule="evenodd" d="M30.8863 48C33.5344 47.998 35.6794 45.849 35.6775 43.201C35.6794 40.5529 33.5344 38.4039 30.8863 38.4019H26.0951V43.201C26.0931 45.8471 28.2382 47.9961 30.8863 48ZM30.8863 35.198H43.6608C46.3089 35.1961 48.454 33.0471 48.452 30.399C48.456 27.7509 46.3109 25.6019 43.6628 25.598H30.8882C28.2402 25.6 26.0951 27.749 26.0971 30.397C26.0951 33.0471 28.2382 35.1961 30.8863 35.198Z" fill="#ECB22E"/>
<path fill-rule="evenodd" clip-rule="evenodd" d="M0.547975 30.399C0.546018 33.0471 2.69109 35.1961 5.33917 35.198C7.98724 35.1961 10.1323 33.0471 10.1304 30.399V25.6H5.33917C2.69109 25.6019 0.546018 27.7509 0.547975 30.399ZM13.3225 30.399V43.199C13.3186 45.8471 15.4637 47.9961 18.1118 48C20.7598 47.998 22.9049 45.849 22.903 43.201V30.4029C22.9069 27.7548 20.7618 25.6058 18.1137 25.6019C15.4637 25.6019 13.3206 27.7509 13.3225 30.399C13.3225 30.399 13.3225 30.401 13.3225 30.399Z" fill="#E01E5A"/>
</svg>
