<svg width="39" height="16" viewBox="0 0 39 16" fill="none" xmlns="http://www.w3.org/2000/svg">
<path fill-rule="evenodd" clip-rule="evenodd" d="M20.8172 2.16822L18.1363 2.74499V0.566088L20.8172 0V2.16822ZM9.92249 1.23867L7.31634 1.79408L7.30566 10.3495C7.30566 11.9303 8.49125 13.0945 10.072 13.0945C10.9479 13.0945 11.5887 12.9343 11.9412 12.742V10.5738C11.5994 10.7126 9.91181 11.204 9.91181 9.62319V5.83146H11.9412V3.55643H9.91181L9.92249 1.23867ZM3.61015 5.69315C3.04406 5.69315 2.70227 5.85336 2.70227 6.26992C2.70227 6.72473 3.29049 6.9248 4.02025 7.173C5.20993 7.57764 6.77576 8.11021 6.78238 10.083C6.78238 11.9949 5.25501 13.095 3.03338 13.095C2.11482 13.095 1.11081 12.9134 0.11749 12.4862V9.94415C1.01469 10.4355 2.14686 10.7986 3.03338 10.7986C3.63151 10.7986 4.05875 10.6384 4.05875 10.1471C4.05875 9.6433 3.4211 9.41302 2.65129 9.13502C1.47891 8.71165 0 8.17757 0 6.39809C0 4.50757 1.44192 3.37539 3.61015 3.37539C4.49666 3.37539 5.3725 3.51424 6.25901 3.86671V6.37673C5.44726 5.93881 4.4219 5.69315 3.61015 5.69315ZM34.5955 3.37539C37.1269 3.37539 38.4513 5.53293 38.4513 8.26725C38.4513 8.41491 38.4443 8.66181 38.4382 8.87117C38.4338 9.02524 38.43 9.15898 38.43 9.21785H33.207C33.3245 10.4782 34.2431 10.8413 35.2791 10.8413C36.3365 10.8413 37.1696 10.617 37.8959 10.2539V12.3901C37.1696 12.796 36.2084 13.0843 34.9373 13.0843C32.3312 13.0843 30.5154 11.4608 30.5154 8.24588C30.5154 5.53293 32.0535 3.37539 34.5955 3.37539ZM34.5849 5.54362C33.912 5.54362 33.175 6.04562 33.175 7.25256H35.9306C35.9306 6.04562 35.2364 5.54362 34.5849 5.54362ZM15.2629 4.34688L15.092 3.5565H12.785V12.9023H15.4552V6.56851C16.0854 5.74608 17.1535 5.89562 17.4846 6.01311V3.5565C17.1428 3.42833 15.8931 3.19335 15.2629 4.34688ZM20.8172 3.55664H18.1363V12.9024H20.8172V3.55664ZM26.3927 3.37539C25.3459 3.37539 24.673 3.86671 24.2992 4.2085L24.1603 3.54628H21.8105V16.0002L24.4808 15.4341L24.4915 12.4114C24.876 12.6891 25.4421 13.0843 26.382 13.0843C28.2939 13.0843 30.0348 11.5463 30.0348 8.16044C30.0242 5.06297 28.2618 3.37539 26.3927 3.37539ZM25.7518 10.7345C25.1216 10.7345 24.7478 10.5102 24.4915 10.2325L24.4808 6.26992C24.7585 5.96017 25.143 5.74655 25.7518 5.74655C26.7238 5.74655 27.3967 6.836 27.3967 8.2352C27.3967 9.66645 26.7344 10.7345 25.7518 10.7345Z" fill="#635BFF"/>
</svg>
