<svg width="20" height="20" viewBox="0 0 20 20" fill="none" xmlns="http://www.w3.org/2000/svg">
<path d="M10 3.99984C9.82323 3.99984 9.65366 3.9296 9.52864 3.80458C9.40361 3.67955 9.33337 3.50998 9.33337 3.33317C9.33337 3.15636 9.40361 2.98679 9.52864 2.86177C9.65366 2.73674 9.82323 2.6665 10 2.6665C10.1769 2.6665 10.3464 2.73674 10.4714 2.86177C10.5965 2.98679 10.6667 3.15636 10.6667 3.33317C10.6667 3.50998 10.5965 3.67955 10.4714 3.80458C10.3464 3.9296 10.1769 3.99984 10 3.99984ZM10 10.6665C9.82323 10.6665 9.65366 10.5963 9.52864 10.4712C9.40361 10.3462 9.33337 10.1766 9.33337 9.99984C9.33337 9.82303 9.40361 9.65346 9.52864 9.52843C9.65366 9.40341 9.82323 9.33317 10 9.33317C10.1769 9.33317 10.3464 9.40341 10.4714 9.52843C10.5965 9.65346 10.6667 9.82303 10.6667 9.99984C10.6667 10.1766 10.5965 10.3462 10.4714 10.4712C10.3464 10.5963 10.1769 10.6665 10 10.6665ZM10 17.3332C9.82323 17.3332 9.65366 17.2629 9.52864 17.1379C9.40361 17.0129 9.33337 16.8433 9.33337 16.6665C9.33337 16.4897 9.40361 16.3201 9.52864 16.1951C9.65366 16.0701 9.82323 15.9998 10 15.9998C10.1769 15.9998 10.3464 16.0701 10.4714 16.1951C10.5965 16.3201 10.6667 16.4897 10.6667 16.6665C10.6667 16.8433 10.5965 17.0129 10.4714 17.1379C10.3464 17.2629 10.1769 17.3332 10 17.3332Z" stroke="black" stroke-width="1.33333"/>
</svg>
